<svg width="25" height="24" viewBox="0 0 25 24" fill="none" xmlns="http://www.w3.org/2000/svg">
<g clip-path="url(#clip0_11019_2859)">
<path d="M20.0502 1.75825L20.0502 1.75826C20.2584 1.64568 20.5015 1.61601 20.7306 1.67522C20.959 1.73422 21.1568 1.87716 21.2844 2.07548C21.4162 2.26865 21.4713 2.504 21.4391 2.73565C21.4067 2.9681 21.2886 3.18006 21.108 3.32994L21.106 3.33156L21.106 3.33155C20.7436 3.62205 20.4335 3.97231 20.1891 4.36722C20.0212 4.65021 19.89 4.9533 19.7986 5.26915C21.2395 6.47566 21.5147 8.44982 20.6406 10.8314C19.6379 13.5736 17.3248 16.416 14.3744 18.59C11.4231 20.7647 7.81796 22.2824 4.21953 22.3554C3.93986 22.3623 3.6659 22.2756 3.44107 22.1091C3.21673 21.9429 3.05414 21.7068 2.97894 21.438C2.8976 21.1771 2.90686 20.8963 3.00524 20.6412C3.10379 20.3857 3.28595 20.1712 3.52203 20.0325C7.25353 17.7717 9.34959 15.6837 10.6096 13.783C11.8695 11.8824 12.3006 10.1593 12.6886 8.60518C12.7833 8.22563 12.8734 7.86515 12.9734 7.50549C12.9735 7.50514 12.9736 7.50478 12.9737 7.50442L13.1182 7.54464C13.1186 7.54312 13.1191 7.5417 13.1196 7.54028C13.1201 7.53889 13.1206 7.5375 13.1211 7.53601L20.0502 1.75825ZM20.0502 1.75825L20.0493 1.75878C19.4366 2.0958 18.8873 2.5368 18.4258 3.06207L18.4249 3.06313C18.0879 3.45398 17.8018 3.88572 17.5732 4.34803C16.9755 4.29482 16.3729 4.36969 15.8057 4.56816C14.7715 4.92767 13.4268 5.73003 12.9772 7.49313L20.0502 1.75825ZM14.1264 7.16495C14.5418 7.0954 14.9558 6.87442 15.381 6.48159L15.381 6.48158C15.4547 6.41351 15.5479 6.37034 15.6475 6.35818L15.6657 6.50707L15.6475 6.35818C15.7471 6.34602 15.848 6.3655 15.9359 6.41384C16.0238 6.46219 16.0943 6.53696 16.1373 6.62757C16.1804 6.71818 16.1938 6.82004 16.1758 6.91873L16.1752 6.92227L16.1751 6.92226C16.016 7.68853 16.0696 8.4829 16.3289 9.21958C16.7083 9.13185 17.1492 8.9959 17.5532 8.78807C18.0038 8.55623 18.3962 8.24135 18.6145 7.81643C18.6145 7.81642 18.6145 7.81641 18.6145 7.8164L18.7479 7.88495C18.7755 7.8313 18.8173 7.78629 18.8688 7.75487C18.9202 7.72344 18.9794 7.70682 19.0397 7.70683L14.1264 7.16495ZM14.1264 7.16495C14.3081 6.80265 14.5545 6.47574 14.8541 6.20066C15.216 5.86836 15.6467 5.61986 16.1155 5.47283L16.1156 5.47308L16.1239 5.46991C16.8911 5.17826 17.7425 5.20148 18.4926 5.53444C19.3087 5.9348 19.7977 6.57976 20.018 7.3549C20.2138 8.04366 20.1982 8.84015 20.0005 9.66123M14.1264 7.16495L20.1089 9.84423M19.114 7.56261C19.0893 7.55865 19.0643 7.55672 19.0393 7.55683L19.3635 7.98133M19.114 7.56261C19.2132 7.57815 19.3051 7.62457 19.3764 7.69528C19.4479 7.7661 19.4951 7.85767 19.5115 7.95693M19.114 7.56261C19.1141 7.56263 19.1142 7.56265 19.1144 7.56267L19.0905 7.71076L19.1136 7.56255C19.1137 7.56257 19.1138 7.56259 19.114 7.56261ZM19.5115 7.95693L19.3635 7.98133M19.5115 7.95693C19.5115 7.95691 19.5115 7.95689 19.5115 7.95687L19.3635 7.98133M19.5115 7.95693C19.6298 8.67312 19.7645 9.22172 20.0005 9.66123M19.3635 7.98133C19.494 8.77113 19.6471 9.38125 19.9469 9.86867C19.966 9.79939 19.9839 9.73022 20.0005 9.66123M20.0005 9.66123C20.0345 9.72443 20.0705 9.78537 20.1089 9.84423M20.1089 9.84423C20.0923 9.90671 20.0747 9.96925 20.0561 10.0318L20.1089 9.84423ZM4.18992 21.3994L4.19174 21.3994C7.28946 21.3994 10.6372 20.0668 13.4765 18.0544C16.2858 16.0631 18.5786 13.4195 19.6329 10.7779C19.2188 10.2989 18.9227 9.73061 18.7671 9.11855C18.1352 9.66078 17.2256 10.0435 16.1184 10.2373L16.1184 10.2373C16.015 10.2554 15.9085 10.239 15.8154 10.1905C15.7223 10.1421 15.6477 10.0644 15.6031 9.96936M4.18992 21.3994L15.6031 9.96936M4.18992 21.3994C4.12314 21.4002 4.05803 21.3785 4.00508 21.3378L3.91368 21.4568L4.00508 21.3378C3.95213 21.2971 3.91442 21.2398 3.89803 21.1751L3.89839 21.175L3.89508 21.1649C3.876 21.107 3.87739 21.0443 3.89902 20.9873C3.92066 20.9303 3.96121 20.8824 4.01391 20.8518L4.01392 20.8518L4.01614 20.8504C7.89202 18.5029 10.092 16.315 11.4239 14.2998C12.7547 12.2865 13.2119 10.4552 13.6146 8.84188L13.6159 8.83685L13.6159 8.8368C13.6757 8.59701 13.7339 8.36809 13.7931 8.14297C14.2586 8.14744 14.7175 8.03859 15.1304 7.82685C15.1269 8.5661 15.2879 9.29811 15.6031 9.96931L15.7389 9.90564L15.6032 9.9694C15.6032 9.96939 15.6031 9.96937 15.6031 9.96936M4.18992 21.3994L15.6031 9.96936M18.7286 8.95267C18.7731 8.91258 18.816 8.87167 18.8572 8.82995C18.8681 8.88841 18.8802 8.94654 18.8937 9.00428L18.7286 8.95267ZM20.4568 2.62601C20.0277 2.97726 19.6605 3.39822 19.3708 3.87137L19.37 3.87266C19.2072 4.14453 19.0722 4.43187 18.9669 4.73036C18.8286 4.66353 18.6866 4.6048 18.5416 4.55449C18.7129 4.2468 18.9155 3.95741 19.1463 3.69096C19.5205 3.26499 19.9636 2.90503 20.4568 2.62601ZM20.4996 2.59934L20.5008 2.60011C20.5008 2.60012 20.5008 2.60012 20.5008 2.60012L20.4996 2.59934ZM20.509 2.60524L20.5019 2.60081L20.5091 2.60525L20.509 2.60524Z" fill="#374151" stroke="#374151" stroke-width="0.3"/>
</g>
<defs>
<clipPath id="clip0_11019_2859">
<rect width="24" height="24" fill="white" transform="translate(0.1875)"/>
</clipPath>
</defs>
</svg>
