<svg width="25" height="24" viewBox="0 0 25 24" fill="none" xmlns="http://www.w3.org/2000/svg">
<g clip-path="url(#clip0_11019_2864)">
<path d="M10.2326 13.5358C12.7928 11.7914 15.7306 11.2721 16.0722 11.2118C16.0817 11.2101 16.0892 11.2088 16.0946 11.2078L16.1034 11.2062L16.1034 11.2066C16.3491 11.1843 16.6183 11.3402 16.6433 11.6159C16.6664 11.8698 16.5038 12.1071 16.2429 12.1546L16.2429 12.1544C16.2306 12.1571 16.211 12.161 16.1846 12.1664C15.6769 12.269 12.6364 12.8834 10.2423 14.737C12.7126 15.9555 14.2927 16.168 15.4522 15.8664C16.6349 15.5588 17.4034 14.7119 18.2505 13.7707C19.0239 12.9074 19.8288 12.009 21.0267 11.4656C20.1818 10.7521 18.9308 9.98691 17.5644 9.53071C16.131 9.05212 14.5843 8.91794 13.2474 9.52229L13.2434 9.52411L13.2434 9.52402C13.0079 9.61823 12.7464 9.52267 12.6293 9.28839L12.6256 9.28094L12.6259 9.28081C12.5317 9.04529 12.6273 8.78387 12.8615 8.66673L12.8649 8.66503L12.8649 8.6651C14.5097 7.91923 16.3995 8.09929 18.1029 8.70174C19.8064 9.30422 21.3382 10.334 22.2777 11.3112C22.3925 11.4264 22.4457 11.5947 22.3956 11.7481C22.3482 11.9116 22.2288 12.0305 22.065 12.0773L22.0648 12.0774C20.712 12.4613 19.8867 13.3725 18.9868 14.3662L18.9808 14.3728C17.8757 15.6091 16.705 16.8999 14.5 16.8999C13.234 16.8999 11.6244 16.4698 9.49224 15.3835C8.68235 16.1532 8.01869 17.117 7.63877 18.2748L7.63862 18.2753C7.56817 18.4866 7.37867 18.6062 7.1875 18.6062C7.18603 18.6062 7.18451 18.6062 7.18295 18.6062C7.14933 18.6062 7.09544 18.6063 7.03982 18.5814C6.77625 18.5039 6.66697 18.219 6.73536 17.9903C6.73539 17.9902 6.73543 17.9901 6.73547 17.9899L6.83125 18.0187C6.9625 17.5687 7.15 17.1749 7.35625 16.7812L10.2326 13.5358ZM10.2326 13.5358C10.5217 12.595 10.9016 11.7981 11.3565 11.1578L11.3566 11.1579L11.3582 11.1554C11.4983 10.9452 11.4558 10.6378 11.2367 10.4917C11.027 10.3519 10.7205 10.3939 10.574 10.6117C9.85628 11.6133 9.32952 12.9288 8.99004 14.5168C8.82072 14.674 8.6513 14.8404 8.49443 15.0099C8.49617 14.694 8.47623 14.378 8.43462 14.0622L10.2326 13.5358ZM7.50828 14.3689C7.59065 15.1601 7.54721 15.9776 7.26471 16.7404L2.45629 9.00267C2.45629 9.00283 2.4563 9.00299 2.4563 9.00314C2.48432 10.0211 2.51575 11.0915 3.17477 12.0451C3.82892 12.9915 5.08671 13.8045 7.50828 14.3689ZM3.9557 11.5048C3.44554 10.7666 3.41574 9.92097 3.38747 8.97863C3.36968 8.12515 3.3354 7.23692 2.95515 6.3455C3.75805 6.36428 4.71929 6.52788 5.61459 6.86688C6.56911 7.2283 7.43887 7.78526 7.96693 8.56809C8.6546 9.59977 8.71432 10.9349 8.08422 12.5431C7.39322 10.3184 6.0366 8.59208 5.93413 8.46843C5.76817 8.25661 5.46085 8.23087 5.26759 8.39776C5.05789 8.56289 5.0315 8.86691 5.19485 9.06008L5.2003 9.06779L5.21625 9.08946C5.21979 9.09422 5.2237 9.09948 5.22797 9.10523C5.23962 9.12088 5.254 9.14022 5.2711 9.1634C5.31771 9.22657 5.3839 9.31747 5.46459 9.43304C5.62598 9.66423 5.84538 9.99419 6.08165 10.3981C6.53356 11.1705 7.04523 12.2101 7.33254 13.3441C5.414 12.8547 4.45117 12.2217 3.9557 11.5048Z" fill="#231F20" stroke="#374151" stroke-width="0.2"/>
<path d="M12.1037 10.3174L12.1094 10.3131L12.1145 10.3081C12.1493 10.2733 12.1843 10.2426 12.2221 10.2095L12.2231 10.2087C12.2587 10.1775 12.2968 10.1442 12.3352 10.1061C12.5436 9.93945 12.5681 9.63462 12.4022 9.44249C12.2359 9.23136 11.9289 9.20605 11.7359 9.37312C11.6876 9.41181 11.6443 9.4503 11.6031 9.48698L11.6023 9.48766C11.5599 9.52537 11.5196 9.56118 11.475 9.59681L11.4746 9.59633L11.4668 9.60419C11.2872 9.78375 11.2535 10.0666 11.4396 10.262C11.5199 10.3867 11.6492 10.4312 11.7812 10.4312C11.9008 10.4312 12.0151 10.3839 12.1037 10.3174Z" fill="#231F20" stroke="#374151" stroke-width="0.2"/>
</g>
<defs>
<clipPath id="clip0_11019_2864">
<rect width="24" height="24" fill="white" transform="translate(0.0625)"/>
</clipPath>
</defs>
</svg>
